<?xml version="1.0" encoding="utf-8"?>
<!-- Generator: Adobe Illustrator 24.0.0, SVG Export Plug-In . SVG Version: 6.00 Build 0)  -->
<svg version="1.1" id="Calque_1" xmlns="http://www.w3.org/2000/svg" xmlns:xlink="http://www.w3.org/1999/xlink" x="0px" y="0px"
	 viewBox="0 0 84 20.5" style="enable-background:new 0 0 84 20.5;" xml:space="preserve">
<style type="text/css">
	.st0{fill:#86DD5F;}
	.st1{fill:#6FBA47;}
</style>
<g>
	<path class="st0" d="M21.8,9.4c-0.4-0.5-0.6-1.2-0.6-1.8c0-0.5,0.1-1,0.3-1.4c0.2-0.4,0.5-0.8,0.9-1.1c0.8-0.6,1.8-0.8,2.8-0.4
		c0.9,0.3,1.7,1,1.9,2c0.1,0.3,0.1,0.5,0.1,0.8l3-3.8c-0.9-1.4-2.2-2.5-3.8-3c-2.3-0.7-4.6-0.3-6.5,1c-0.9,0.7-1.6,1.5-2.1,2.5
		c-0.5,1-0.8,2.1-0.8,3.3c0,1.6,0.5,3,1.4,4.3l1.6,2.1c0.6,0.7,1.6,0.7,2.2,0l1.4-1.8L21.8,9.4z"/>
	<path class="st1" d="M32.4,4.5c-0.1-0.3-0.2-0.6-0.3-0.8l-3.9,4.9c0,0.1-1.4,1.7-1.4,1.8l0,0l-2.5,3.1l0,0L24,13.8
		c-1.3,1.7-1.3,4.1,0,5.8l0.3,0.3l7-8.9l0,0C32.7,9.2,33.1,6.8,32.4,4.5z"/>
	<path class="st0" d="M38.2,4.6H44l-0.4,1.6h-4l-0.5,2.2h3.5l-0.3,1.6h-3.5l-0.8,3.4h-1.8L38.2,4.6z"/>
	<path class="st0" d="M46.2,10l-0.7,3.4h-1.8l1.9-8.8h3.2c1.7,0,2.6,1,2.6,2.3c0,1.5-1,2.5-2.3,2.9l1.4,3.6h-1.9L47.4,10H46.2z
		 M49.6,7c0-0.6-0.4-1-1.2-1h-1.3l-0.5,2.4h1.4C48.9,8.5,49.6,7.9,49.6,7z"/>
	<path class="st0" d="M53.8,4.6h5.7l-0.4,1.6h-3.9l-0.5,2h3.6L58,9.7h-3.6l-0.5,2H58l-0.3,1.6h-5.7L53.8,4.6z"/>
	<path class="st0" d="M61.3,4.6H67l-0.4,1.6h-3.9l-0.5,2h3.6l-0.3,1.5h-3.6l-0.5,2h3.9l-0.3,1.6h-5.7L61.3,4.6z"/>
</g>
</svg>
